<svg t="1775657268042" class="icon" viewBox="0 0 1024 1024" version="1.1" xmlns="http://www.w3.org/2000/svg" p-id="26919" width="256" height="256">
  <path d="M52.8 927.2c0 31.2 204 56.8 456 56.8s456-25.6 456-56.8c0-31.2-204-56.8-456-56.8s-456 25.6-456 56.8z m0 0M68.8 349.6c0 9.6 7.2 16.8 16.8 16.8 9.6 0 16.8-7.2 16.8-16.8 0-9.6-7.2-16.8-16.8-16.8-8.8-0.8-16.8 7.2-16.8 16.8zM970.4 856c-21.6 5.6-26.4 10.4-31.2 31.2-5.6-21.6-10.4-26.4-31.2-31.2 20.8-5.6 26.4-10.4 31.2-31.2 4.8 20.8 9.6 26.4 31.2 31.2zM164 289.6c-28 7.2-33.6 12.8-40.8 40.8-7.2-28-12.8-33.6-40.8-40.8 28-7.2 33.6-13.6 40.8-40.8 6.4 28 12.8 33.6 40.8 40.8zM848 191.2c-16.8 4.8-20.8 8-24.8 24.8-4.8-16.8-8-20.8-24.8-24.8 16.8-4.8 20.8-8 24.8-24.8 4 17.6 7.2 20.8 24.8 24.8z m73.6-87.2c-44.8 11.2-53.6 20.8-65.6 65.6-11.2-44.8-20.8-53.6-65.6-65.6 44.8-11.2 53.6-20.8 65.6-65.6 11.2 44 20.8 53.6 65.6 65.6z m0 0" fill="#DCEAFF" p-id="26920"></path>
  <path d="M406.4 724v4.8l37.6 34.4 144-70.4-130.4 84v40.8l20.8-20.8v-0.8 0.8l20.8 20.8 112-136.8v-4.8l-204.8 48z m0 0" fill="#DCEAFF" p-id="26921"></path>
  <path d="M896 544v-0.8c0-0.8-0.8-1.6-0.8-3.2v-0.8l-122.4-320c-17.6-54.4-68-90.4-124.8-90.4H369.6c-56.8 0-107.2 36.8-124.8 90.4l-122.4 320v0.8c-0.8 0.8-0.8 1.6-0.8 3.2v230.4c0 72 58.4 131.2 131.2 131.2h512.8c72 0 131.2-58.4 131.2-131.2V545.6c-0.8-0.8-0.8-0.8-0.8-1.6zM276.8 232s0-0.8 0 0c12.8-41.6 50.4-68 92.8-68H648c42.4 0 80 26.4 92.8 67.2 0 0 0 0.8 0.8 0.8l113.6 296H594.4c-9.6 0-16.8 7.2-16.8 16.8 0 37.6-30.4 68-68 68s-68-30.4-68-68c0-9.6-7.2-16.8-16.8-16.8H163.2l113.6-296z m585.6 541.6c0 53.6-43.2 96.8-96.8 96.8H252c-53.6 0-96.8-43.2-96.8-96.8V562.4H408C416 611.2 458.4 648 508.8 648s92.8-36.8 100.8-85.6h252.8v211.2z m0 0" fill="#5F9CFF" p-id="26922"></path>
  <path d="M508.8 574.4c-16 0-28.8-12.8-28.8-28.8v-56.8H220.8l93.6-244 0.8-0.8c8-24 29.6-40 54.4-40H648c24.8 0 46.4 16 54.4 40l0.8 0.8 93.6 244H537.6v56.8c0 16-12.8 28.8-28.8 28.8z m0 0" fill="#B3D6FF" p-id="26923"></path>
</svg>